<svg width="20" height="24" viewBox="0 0 20 24" fill="none" xmlns="http://www.w3.org/2000/svg">
<path fill-rule="evenodd" clip-rule="evenodd" d="M19.7826 18.8923C19.7826 22.7376 14.3209 23.1821 10.2138 23.1821L9.91988 23.1819C7.30316 23.1758 0.642578 23.0162 0.642578 18.869C0.642578 15.1021 5.88475 14.5987 9.96062 14.5797L10.5077 14.5794C13.1242 14.5855 19.7826 14.745 19.7826 18.8923ZM10.2138 16.3291C5.06508 16.3291 2.45508 17.1831 2.45508 18.869C2.45508 20.57 5.06508 21.4321 10.2138 21.4321C15.3613 21.4321 17.9701 20.5781 17.9701 18.8923C17.9701 17.1913 15.3613 16.3291 10.2138 16.3291ZM10.2138 0C13.7518 0 16.6288 2.779 16.6288 6.195C16.6288 9.611 13.7518 12.3888 10.2138 12.3888H10.1751C6.64437 12.3783 3.78425 9.59817 3.79629 6.1915C3.79629 2.779 6.67458 0 10.2138 0ZM10.2138 1.666C7.62675 1.666 5.5218 3.69717 5.5218 6.195C5.51337 8.68467 7.60258 10.7147 10.1787 10.724L10.2138 11.557V10.724C12.7996 10.724 14.9033 8.69167 14.9033 6.195C14.9033 3.69717 12.7996 1.666 10.2138 1.666Z" fill="#E6E8EC"/>
</svg>
