<svg width="42" height="42" viewBox="0 0 42 42" fill="none" xmlns="http://www.w3.org/2000/svg">
<path fill-rule="evenodd" clip-rule="evenodd" d="M24.1905 13.5127C24.9605 12.5832 25.4775 11.2879 25.3363 10C24.229 10.0449 22.8888 10.7379 22.0959 11.6674C21.3837 12.4906 20.7603 13.8078 20.929 15.0701C22.1628 15.1663 23.4242 14.4431 24.1923 13.5127H24.1905ZM26.9607 21.6875C26.9918 25.0168 29.8812 26.1251 29.9123 26.1397C29.8894 26.2177 29.4522 27.7183 28.3907 29.2683C27.474 30.6085 26.5225 31.9441 25.0228 31.9716C23.5498 31.9982 23.0768 31.098 21.3919 31.098C19.7089 31.098 19.1828 31.9441 17.7876 31.9982C16.3411 32.0532 15.2393 30.5489 14.3134 29.2142C12.4251 26.4826 10.9813 21.4959 12.9201 18.1299C13.8817 16.4579 15.6032 15.3992 17.4713 15.3726C18.8922 15.3451 20.2333 16.3287 21.1013 16.3287C21.9703 16.3287 23.6002 15.1462 25.3134 15.3194C26.0312 15.3497 28.0442 15.6091 29.3376 17.502C29.2331 17.5662 26.935 18.9045 26.9598 21.6875" fill="#332218"/>
<path fill-rule="evenodd" clip-rule="evenodd" d="M24.1905 13.5127C24.9605 12.5832 25.4775 11.2879 25.3363 10C24.229 10.0449 22.8888 10.7379 22.0959 11.6674C21.3837 12.4906 20.7603 13.8078 20.929 15.0701C22.1628 15.1663 23.4242 14.4431 24.1923 13.5127H24.1905ZM26.9607 21.6875C26.9918 25.0168 29.8812 26.1251 29.9123 26.1397C29.8894 26.2177 29.4522 27.7183 28.3907 29.2683C27.474 30.6085 26.5225 31.9441 25.0228 31.9716C23.5498 31.9982 23.0768 31.098 21.3919 31.098C19.7089 31.098 19.1828 31.9441 17.7876 31.9982C16.3411 32.0532 15.2393 30.5489 14.3134 29.2142C12.4251 26.4826 10.9813 21.4959 12.9201 18.1299C13.8817 16.4579 15.6032 15.3992 17.4713 15.3726C18.8922 15.3451 20.2333 16.3287 21.1013 16.3287C21.9703 16.3287 23.6002 15.1462 25.3134 15.3194C26.0312 15.3497 28.0442 15.6091 29.3376 17.502C29.2331 17.5662 26.935 18.9045 26.9598 21.6875" fill="#332218"/>
<rect opacity="0.14" x="0.5" y="0.5" width="41" height="41" rx="20.5" fill="white" stroke="#332218"/>
</svg>
