<svg width="22" height="23" viewBox="0 0 22 23" fill="none" xmlns="http://www.w3.org/2000/svg">
<path d="M6.53824 5.20833V4.6875C6.53824 2.10174 8.63823 0 11.2257 0C13.8142 0 15.9132 2.10006 15.9132 4.6875V5.20833H17.5939C18.9936 5.20833 20.2113 6.30534 20.3534 7.6997L21.6288 20.2141C21.7787 21.6856 20.6688 22.9167 19.192 22.9167H3.25954C1.77964 22.9167 0.672367 21.6899 0.822767 20.2141L2.09811 7.6997C2.2398 6.30933 3.46046 5.20833 4.8576 5.20833H6.53824ZM6.53824 7.29167H4.8576C4.52862 7.29167 4.20398 7.58449 4.17071 7.91092L2.89536 20.4253C2.87005 20.6737 3.01412 20.8333 3.25954 20.8333H19.192C19.4338 20.8333 19.5811 20.6699 19.5562 20.4253L18.2808 7.91092C18.2472 7.58106 17.926 7.29167 17.5939 7.29167H15.9132V9.375C15.9132 9.9503 15.4469 10.4167 14.8716 10.4167C14.2963 10.4167 13.8299 9.9503 13.8299 9.375V7.29167H8.62158V9.375C8.62158 9.9503 8.15521 10.4167 7.57991 10.4167C7.00461 10.4167 6.53824 9.9503 6.53824 9.375V7.29167ZM13.8299 5.20833V4.24679C13.8299 3.05259 12.6638 2.08333 11.2257 2.08333C9.78824 2.08333 8.62158 3.05337 8.62158 4.24679V5.20833H13.8299Z" fill="#E6E8EC"/>
</svg>
