<svg width="42" height="42" viewBox="0 0 42 42" fill="none" xmlns="http://www.w3.org/2000/svg">
<rect opacity="0.14" x="0.5" y="0.5" width="41" height="41" rx="20.5" fill="white" stroke="#332218"/>
<path fill-rule="evenodd" clip-rule="evenodd" d="M18.1363 31V21.7243H15V17.8592H18.1363V14.767C18.1363 11.5718 20.1874 10 23.0777 10C24.4622 10 25.6528 10.1019 26 10.147V13.486H23.9947C22.4228 13.486 22.0564 14.2241 22.0564 15.3046V17.8592H25.9755L25.1917 21.7232H22.0564L22.1193 31" fill="#3266CE"/>
<path fill-rule="evenodd" clip-rule="evenodd" d="M18.1363 31V21.7243H15V17.8592H18.1363V14.767C18.1363 11.5718 20.1874 10 23.0777 10C24.4622 10 25.6528 10.1019 26 10.147V13.486H23.9947C22.4228 13.486 22.0564 14.2241 22.0564 15.3046V17.8592H25.9755L25.1917 21.7232H22.0564L22.1193 31" fill="#3266CE"/>
</svg>
