<svg width="42" height="42" viewBox="0 0 42 42" fill="none" xmlns="http://www.w3.org/2000/svg">
<g clip-path="url(#clip0_8984_637)">
<path d="M14.8272 18.9513C15.2561 17.6537 16.0838 16.5247 17.1923 15.7253C18.3008 14.926 19.6334 14.4971 21.0001 14.4999C22.5492 14.4999 23.9499 15.0499 25.0499 15.9501L28.2509 12.75C26.3002 11.0496 23.8005 10 21.0001 10C16.6642 10 12.9316 12.4732 11.1367 16.0958L14.8272 18.9513Z" fill="#EA4335"/>
<path d="M24.7032 26.512C23.704 27.1564 22.4354 27.5002 20.9999 27.5002C19.6387 27.503 18.3111 27.0775 17.2051 26.2841C16.0991 25.4907 15.2707 24.3694 14.8371 23.0791L11.1338 25.8905C12.0424 27.7296 13.4486 29.277 15.1926 30.357C16.9366 31.437 18.9486 32.0062 20.9999 32.0001C23.6885 32.0001 26.257 31.044 28.181 29.2501L24.7041 26.512H24.7032Z" fill="#34A853"/>
<path d="M28.1812 29.2502C30.1932 27.3728 31.4995 24.5788 31.4995 21.0002C31.4995 20.3493 31.3996 19.6499 31.2502 19H21V23.2506H26.8997C26.6091 24.6797 25.8272 25.7861 24.7043 26.5121L28.1812 29.2502Z" fill="#4A90E2"/>
<path d="M14.8374 23.0789C14.6131 22.4087 14.4992 21.7066 14.5 20.9999C14.5 20.283 14.6146 19.5946 14.8273 18.9511L11.1368 16.0957C10.3818 17.6198 9.99259 19.299 10.0001 20.9999C10.0001 22.7599 10.408 24.419 11.134 25.8903L14.8374 23.0789Z" fill="#FBBC05"/>
</g>
<g clip-path="url(#clip1_8984_637)">
<path d="M14.8272 18.9513C15.2561 17.6537 16.0838 16.5247 17.1923 15.7253C18.3008 14.926 19.6334 14.4971 21.0001 14.4999C22.5492 14.4999 23.9499 15.0499 25.0499 15.9501L28.2509 12.75C26.3002 11.0496 23.8005 10 21.0001 10C16.6642 10 12.9316 12.4732 11.1367 16.0958L14.8272 18.9513Z" fill="#EA4335"/>
<path d="M24.7032 26.512C23.704 27.1564 22.4354 27.5002 20.9999 27.5002C19.6387 27.503 18.3111 27.0775 17.2051 26.2841C16.0991 25.4907 15.2707 24.3694 14.8371 23.0791L11.1338 25.8905C12.0424 27.7296 13.4486 29.277 15.1926 30.357C16.9366 31.437 18.9486 32.0062 20.9999 32.0001C23.6885 32.0001 26.257 31.044 28.181 29.2501L24.7041 26.512H24.7032Z" fill="#34A853"/>
<path d="M28.1812 29.2502C30.1932 27.3728 31.4995 24.5788 31.4995 21.0002C31.4995 20.3493 31.3996 19.6499 31.2502 19H21V23.2506H26.8997C26.6091 24.6797 25.8272 25.7861 24.7043 26.5121L28.1812 29.2502Z" fill="#4A90E2"/>
<path d="M14.8374 23.0789C14.6131 22.4087 14.4992 21.7066 14.5 20.9999C14.5 20.283 14.6146 19.5946 14.8273 18.9511L11.1368 16.0957C10.3818 17.6198 9.99259 19.299 10.0001 20.9999C10.0001 22.7599 10.408 24.419 11.134 25.8903L14.8374 23.0789Z" fill="#FBBC05"/>
</g>
<rect opacity="0.14" x="0.5" y="0.5" width="41" height="41" rx="20.5" fill="white" stroke="#332218"/>
<defs>
<clipPath id="clip0_8984_637">
<rect width="22" height="22" fill="white" transform="translate(10 10)"/>
</clipPath>
<clipPath id="clip1_8984_637">
<rect width="22" height="22" fill="white" transform="translate(10 10)"/>
</clipPath>
</defs>
</svg>
